<svg width="42" height="40" viewBox="0 0 42 40" fill="none" xmlns="http://www.w3.org/2000/svg">
<path opacity="0.5" fill-rule="evenodd" clip-rule="evenodd" d="M38.0095 24.6298L38.4165 20.8605C38.6311 18.8475 38.7748 17.5203 38.662 16.6819C38.1922 16.6761 37.729 16.5705 37.303 16.3722C36.8771 16.1739 36.4981 15.8874 36.1912 15.5316C35.4678 15.9763 34.5255 16.9164 33.1076 18.3299C32.0126 19.4204 31.4662 19.9646 30.8557 20.0487C30.5174 20.0957 30.1727 20.0474 29.8603 19.9093C29.2984 19.6615 28.9224 18.9891 28.1725 17.6419L24.2129 10.5435C23.7506 9.71396 23.3635 9.01717 23.014 8.45973C22.4101 8.76721 21.7288 8.93975 21.0055 8.93975C20.2821 8.93975 19.6008 8.76721 18.9969 8.45973C18.6474 9.01938 18.2603 9.71396 17.7958 10.5435L13.8384 17.6419C13.0863 18.9891 12.7103 19.6615 12.1484 19.9093C11.836 20.0474 11.4913 20.0957 11.153 20.0487C10.5447 19.9646 9.99831 19.4204 8.90335 18.3299C7.48543 16.9164 6.5431 15.9763 5.82197 15.5316C5.51479 15.8877 5.13545 16.1743 4.70909 16.3726C4.28273 16.5709 3.81909 16.6764 3.3489 16.6819C3.23608 17.5181 3.37987 18.8475 3.59444 20.8605L4.00145 24.6298L4.19833 26.51C4.75576 31.8964 5.21587 36.3537 7.09611 38.0348C9.1887 39.9084 12.3254 39.9084 18.5988 39.9084H23.4122C29.6855 39.9084 32.8222 39.9084 34.9148 38.0348C36.7951 36.3537 37.2552 31.8964 37.8126 26.51C37.876 25.8951 37.9402 25.2683 38.0095 24.6298Z" fill="white"/>
<path d="M38.7018 16.6819C39.5801 16.6767 40.4205 16.3234 41.0387 15.6996C41.6569 15.0757 42.0026 14.2323 42 13.354C41.9973 12.4757 41.6466 11.6343 41.0246 11.0142C40.4027 10.3941 39.5602 10.0459 38.6819 10.0459C37.8036 10.0459 36.9612 10.3941 36.3392 11.0142C35.7172 11.6343 35.3665 12.4757 35.3639 13.354C35.3612 14.2323 35.7069 15.0757 36.3252 15.6996C36.9434 16.3234 37.7838 16.6767 38.662 16.6819H38.7018ZM21.0055 0.0915833C19.8321 0.0915833 18.7068 0.557692 17.8771 1.38737C17.0475 2.21705 16.5814 3.34234 16.5814 4.51568C16.5814 5.68902 17.0475 6.81431 17.8771 7.64399C18.7068 8.47367 19.8321 8.93977 21.0055 8.93977C22.1788 8.93977 23.3041 8.47367 24.1338 7.64399C24.9634 6.81431 25.4295 5.68902 25.4295 4.51568C25.4295 3.34234 24.9634 2.21705 24.1338 1.38737C23.3041 0.557692 22.1788 0.0915833 21.0055 0.0915833ZM-0.00899887 13.3639C-0.00899887 14.2439 0.340583 15.0878 0.962842 15.7101C1.5851 16.3324 2.42907 16.6819 3.30907 16.6819H3.34889C4.22252 16.6732 5.0573 16.3195 5.67134 15.698C6.28539 15.0765 6.62894 14.2375 6.62714 13.3639C6.62714 12.4839 6.27756 11.6399 5.6553 11.0176C5.03304 10.3954 4.18908 10.0458 3.30907 10.0458C2.42907 10.0458 1.5851 10.3954 0.962842 11.0176C0.340583 11.6399 -0.00899887 12.4839 -0.00899887 13.3639ZM5.1871 33.8253C4.95907 32.7274 4.77752 31.6204 4.64294 30.5072H37.368C37.2131 31.7128 37.0406 32.8299 36.8238 33.8253H5.1871Z" fill="white"/>
</svg>
